[img]http://img69.imageshack.us/img69/7159/thevampirediariesseason.png[/img]

[size=200][color=black]TV INFO[/color][/size]

[code]The Vampire Diaries S04E13 HDTV x264 AAC-V3nom

Format                                   : MPEG-4
Format profile                           : Base Media / Version 2
Codec ID                                 : mp42
File size                                : 100 MiB
Duration                                 : 42mn 2s
Overall bit rate mode                    : Variable
Overall bit rate                         : 334 Kbps
Encoded date                             : UTC 2013-02-08 08:17:00
Tagged date                              : UTC 2013-02-08 08:30:37

Video
ID                                       : 1
Format                                   : AVC
Format/Info                              : Advanced Video Codec
Format profile                           : Main@L2.1
Format settings, CABAC                   : Yes
Format settings, ReFrames                : 4 frames
Codec ID                                 : avc1
Codec ID/Info                            : Advanced Video Coding
Duration                                 : 42mn 2s
Bit rate mode                            : Variable
Bit rate                                 : 232 Kbps
Width                                    : 640 pixels
Height                                   : 256 pixels
Display aspect ratio                     : 16:9
Original display aspect ratio            : 16:9
Frame rate mode                          : Variable
Frame rate                               : 23.976 fps
Minimum frame rate                       : 11.989 fps
Maximum frame rate                       : 90 000.000 fps
Color space                              : YUV
Chroma subsampling                       : 4:2:0
Bit depth                                : 8 bits
Scan type                                : Progressive
Bits/(Pixel*Frame)                       : 0.059
Stream size                              : 69.9 MiB (70%)
Writing library                          : x264 core 112

Audio
ID                                       : 2
Format                                   : AAC
Format/Info                              : Advanced Audio Codec
Format profile                           : LC
Codec ID                                 : 40
Duration                                 : 42mn 2s
Bit rate mode                            : Variable
Bit rate                                 : 96.0 Kbps
Maximum bit rate                         : 198 Kbps
Channel(s)                               : 2 channels
Channel positions                        : Front: L R
Sampling rate                            : 48.0 KHz
Compression mode                         : Lossy
Delay relative to video                  : 42ms
Stream size                              : 28.9 MiB (29%)
Encoded date                             : UTC 2013-02-08 08:17:00
Tagged date                              : UTC 2013-02-08 08:30:35[/code]

[size=200][color=black]SOURCE[/color][/size]

[code]The.Vampire.Diaries.S04E13.HDTV.XviD-AFG(THANKS)[/code]

[size=200][color=black]SCREENSHOTS[/color][/size]

[img]http://img203.imageshack.us/img203/751/thevampirediariess04e13n.jpg[/img]

[img]http://kastatic.com/i2/users/133df62bbf28e62494bb17fe11078f1a.gif[/img][img]http://kastatic.com/i2/users/133df62bbf28e62494bb17fe11078f1a.gif[/img]
